<svg width="81" height="43" viewBox="0 0 81 43" fill="none" xmlns="http://www.w3.org/2000/svg">
<g clip-path="url(#clip0_1_86)" filter="url(#filter0_d_1_86)">
<path fill-rule="evenodd" clip-rule="evenodd" d="M24.3215 19.8133L35.061 14.4592L8.44 1.18758C2.52 4.13893 2.52 8.93488 8.44 11.8862L24.3215 19.8133ZM50.0697 16.3795C55.8569 17.7322 64.0349 16.7768 70.0687 13.7687C77.3359 10.1457 78.721 4.97137 73.1615 2.19974C67.5831 -0.571877 57.1851 0.118663 49.9369 3.74164C43.9031 6.74974 42.0056 10.8268 44.7 13.7119C36.2564 17.9119 7.64308 32.1768 7.64308 32.1768L13.0128 34.8538L39.1215 21.8376L65.2303 34.8538L70.6 32.1768L44.4913 19.1606L50.0697 16.3795Z" fill="#FD0B7D"/>
</g>
<defs>
<filter id="filter0_d_1_86" x="0" y="0.5" width="82" height="43" filterUnits="userSpaceOnUse" color-interpolation-filters="sRGB">
<feFlood flood-opacity="0" result="BackgroundImageFix"/>
<feColorMatrix in="SourceAlpha" type="matrix" values="0 0 0 0 0 0 0 0 0 0 0 0 0 0 0 0 0 0 127 0" result="hardAlpha"/>
<feOffset dy="4"/>
<feGaussianBlur stdDeviation="2"/>
<feComposite in2="hardAlpha" operator="out"/>
<feColorMatrix type="matrix" values="0 0 0 0 0 0 0 0 0 0 0 0 0 0 0 0 0 0 0.25 0"/>
<feBlend mode="normal" in2="BackgroundImageFix" result="effect1_dropShadow_1_86"/>
<feBlend mode="normal" in="SourceGraphic" in2="effect1_dropShadow_1_86" result="shape"/>
</filter>
<clipPath id="clip0_1_86">
<rect width="74" height="35" fill="white" transform="translate(4 0.5)"/>
</clipPath>
</defs>
</svg>
